<?xml version="1.0"?>
<svg width="128" height="128" xmlns="http://www.w3.org/2000/svg" xmlns:svg="http://www.w3.org/2000/svg" data-name="Layer 1">
 <defs>
  <style>.cls-1{fill:#00adfe;}.cls-2{fill:#356cb6;opacity:0.3;}.cls-3,.cls-8{fill:#393c54;}.cls-4{fill:#fff;}.cls-5,.cls-6{fill:none;stroke:#393c54;stroke-linecap:round;stroke-miterlimit:10;}.cls-5{stroke-width:5.51px;}.cls-6{stroke-width:2.21px;}.cls-7{fill:#a7aece;}.cls-8{opacity:0.2;}</style>
 </defs>
 <title/>
 <g class="layer">
  <title>Layer 1</title>
  <g id="svg_16">
   <circle class="cls-1" cx="70" cy="66" id="svg_1" r="51"/>
   <circle class="cls-2" cx="70" cy="66" id="svg_2" r="40.8"/>
   <path class="cls-3" d="m70,117a50.83,50.83 0 0 0 35.31,-14.21c-0.85,-19.07 -3.35,-47.17 -10.75,-63.9c-4.11,-9.28 -13.73,-15.49 -24.56,-15.49l0,0c-10.83,0 -20.95,5.95 -24.56,15.49c-6.4,16.86 -9.15,45.25 -10.29,64.31a50.78,50.78 0 0 0 34.85,13.8z" id="svg_3"/>
   <path class="cls-4" d="m87.11,42.31c-2.99,-7.21 -8.91,-10.9 -16.78,-11.05l0,0l-0.66,0l0,0c-7.87,0.19 -13.79,3.88 -16.78,11.05c-3.09,7.4 -4.11,18.5 0,33.31c3.99,14.45 8.96,17.42 16.78,17.57l0.66,0c7.82,-0.15 12.75,-3.16 16.78,-17.57c4.14,-14.81 3.09,-25.91 0,-33.31z" id="svg_4"/>
   <line class="cls-5" id="svg_5" x1="81.54" x2="85.29" y1="56.51" y2="56.51"/>
   <path class="cls-3" d="m73.83,86.4a26.22,26.22 0 0 1 -7.65,0c-1.06,-0.28 -2.13,-0.95 -2.13,-2.13s1.02,-1.81 2.13,-2.13a17.34,17.34 0 0 1 7.65,0c1.03,0.26 2.13,0.95 2.13,2.13s-1.08,1.85 -2.13,2.13z" id="svg_6"/>
   <path class="cls-6" d="m85.34,60.99a8.42,8.42 0 0 1 -4.87,-0.31" id="svg_7"/>
   <path class="cls-7" d="m79.71,66.85a2.81,2.81 0 0 1 5.59,0c0,1.56 -2.81,12.18 -4.68,12.18c-0.91,-0.03 -0.91,-10.66 -0.91,-12.18z" id="svg_8"/>
   <path class="cls-7" d="m79.66,49.85a2.81,2.81 0 0 0 5.64,0c0,-1.55 -2.2,-8.43 -3.75,-8.43s-1.89,6.89 -1.89,8.43z" id="svg_9"/>
   <line class="cls-5" id="svg_10" x1="54.71" x2="58.46" y1="56.51" y2="56.51"/>
   <path class="cls-6" d="m59.53,60.7a8.5,8.5 0 0 1 -5.02,0.25" id="svg_11"/>
   <path class="cls-7" d="m60.34,49.85a2.81,2.81 0 0 1 -5.64,0c0,-1.55 2.2,-8.43 3.75,-8.43s1.89,6.89 1.89,8.43z" id="svg_12"/>
   <path class="cls-7" d="m60.29,66.85a2.81,2.81 0 0 0 -5.59,0c0,1.56 2.81,12.18 4.68,12.18c0.91,-0.03 0.91,-10.66 0.91,-12.18z" id="svg_13"/>
   <path class="cls-7" d="m73.75,88.37c0,1.04 -1.7,1.88 -3.75,1.88s-3.75,-0.85 -3.75,-1.88c0,-0.53 1.7,-0.23 3.75,-0.23s3.75,-0.3 3.75,0.23z" id="svg_14"/>
   <path class="cls-8" d="m87.11,42.31a18.53,18.53 0 0 0 -3.81,-5.9c1.23,8.77 0.54,20.09 -1.16,35.58c-1.78,16.24 -9.72,19.81 -17.85,20.4a17.99,17.99 0 0 0 5.4,0.8l0.66,0c7.82,-0.15 12.75,-3.16 16.78,-17.57c4.11,-14.81 3.06,-25.91 -0.03,-33.31z" id="svg_15"/>
  </g>
 </g>
</svg>